<svg viewBox="0 0 215.88 78.22" xmlns="http://www.w3.org/2000/svg"><path d="m0 78.22a86.42 86.42 0 0 1 143-56.81 70.81 70.81 0 0 0 -83.23 56.7m139.3.06a70.81 70.81 0 0 0 -56.07-56.76q2.15 1.88 4.17 3.9a86.1 86.1 0 0 1 24.92 52.83m37.79 0a5.88 5.88 0 0 0 6-6 5.94 5.94 0 0 0 -6-6 5.89 5.89 0 0 0 -6 6 5.83 5.83 0 0 0 6 6zm0-1.09a4.69 4.69 0 0 1 -3.44-1.4 4.76 4.76 0 0 1 -1.44-3.44 4.67 4.67 0 0 1 1.37-3.48 4.9 4.9 0 0 1 6.92 0 4.73 4.73 0 0 1 1.39 3.48 4.82 4.82 0 0 1 -1.39 3.47 4.73 4.73 0 0 1 -3.44 1.4zm-.72-1.33v-2.56h.58l1.43 2.59h1.54l-1.57-2.75a2.11 2.11 0 0 0 1.54-2.14c0-1.4-.89-2.25-2.49-2.25h-2.49v7.12zm0-5.86h.92c.79 0 1.16.34 1.16 1s-.37 1-1.16 1h-.92z" fill="#009ED8"/></svg>
